<svg xmlns="http://www.w3.org/2000/svg" viewBox="0 0 24 24">
  <path d="M14 5.3417969C13.744125 5.3417969 13.487969 5.4412187 13.292969 5.6367188L13.207031 5.7226562C12.816031 6.1136563 12.816031 6.7467188 13.207031 7.1367188L17.070312 11L4 11C3.448 11 3 11.448 3 12C3 12.552 3.448 13 4 13L17.070312 13L13.207031 16.863281C12.816031 17.254281 12.816031 17.887344 13.207031 18.277344L13.292969 18.363281C13.683969 18.754281 14.317031 18.754281 14.707031 18.363281L20.363281 12.707031C20.754281 12.316031 20.754281 11.682969 20.363281 11.292969L14.707031 5.6367188C14.511531 5.4412187 14.255875 5.3417969 14 5.3417969 z" fill="#969696" />
</svg>